<svg width="28" height="29" viewBox="0 0 28 29" fill="none" xmlns="http://www.w3.org/2000/svg">
<path d="M25.4398 12.4202H24.5V12.3718H14V17.0384H20.5934C19.6315 19.755 17.0468 21.7051 14 21.7051C10.1343 21.7051 7 18.5708 7 14.7051C7 10.8393 10.1343 7.70509 14 7.70509C15.7844 7.70509 17.4078 8.37825 18.6439 9.47784L21.9438 6.17792C19.8602 4.23601 17.073 3.03842 14 3.03842C7.55709 3.03842 2.33334 8.26217 2.33334 14.7051C2.33334 21.148 7.55709 26.3718 14 26.3718C20.4429 26.3718 25.6667 21.148 25.6667 14.7051C25.6667 13.9228 25.5862 13.1593 25.4398 12.4202Z" fill="#FFC107"/>
<path d="M3.67848 9.27481L7.51156 12.0859C8.54873 9.51806 11.0606 7.70506 14 7.70506C15.7844 7.70506 17.4078 8.37822 18.6439 9.47781L21.9438 6.17789C19.8601 4.23597 17.073 3.03839 14 3.03839C9.51882 3.03839 5.63265 5.56831 3.67848 9.27481Z" fill="#FF3D00"/>
<path d="M14 26.3717C17.0135 26.3717 19.7517 25.2185 21.8219 23.3431L18.2111 20.2876C17.0004 21.2083 15.521 21.7063 14 21.7051C10.9655 21.7051 8.38892 19.7701 7.41825 17.0699L3.61375 20.0011C5.54459 23.7794 9.46575 26.3717 14 26.3717Z" fill="#0E9D57"/>
<path d="M25.4398 12.4202H24.5V12.3717H14V17.0384H20.5934C20.1333 18.3313 19.3045 19.4611 18.2093 20.2882L18.2111 20.287L21.8219 23.3425C21.5664 23.5747 25.6667 20.5384 25.6667 14.7051C25.6667 13.9228 25.5862 13.1592 25.4398 12.4202Z" fill="#1976D2"/>
</svg>
