<svg width="142" height="109" viewBox="0 0 142 109" fill="none" xmlns="http://www.w3.org/2000/svg">
<path d="M23 66.3301C21.5 65.8301 19 64.8301 16.5 64.8301C14 64.8301 12 65.8301 10.5 67.3301C9 68.8301 7 71.8301 7 72.3301C7 72.8301 9.5 73.8301 12 74.3301C14.5 74.8301 14.5 74.8301 16.5 74.8301C18.5 74.8301 20.5 73.3301 21.5 72.8301C22.5 72.3301 26.5 68.8301 26.5 68.3301C26.5 67.8301 24.5 66.8301 23 66.3301Z" fill="#2554A2"/>
<path d="M17.5 55.33C18 54.8298 14 48.3301 12.5 47.33C11 46.3298 10.5 45.33 7 45.33C3.5 45.3299 3.01575 45.4629 0.5 46.33L2.5 50.8301C2.5 50.8301 5 54.2948 6.5 54.7949C8 55.295 7.5 55.2948 9.5 55.7949C11.5 56.295 17 55.8301 17.5 55.33Z" fill="#2554A2"/>
<path d="M87 80.33C84.5 78.83 82 71.83 82 71.3301C82 70.8301 89 70.8302 90.5 71.3302C92 71.8302 95 75.3302 95 75.3302C95 75.3302 99 81.3302 99 81.8301C99 82.3301 89.5 81.83 87 80.33Z" fill="#CA2232"/>
<path d="M98.5006 73.3307L98.5 73.3301C97.5002 72.3303 97.0002 71.3304 96.5002 70.3306L96.5 70.3301C96 69.3302 95.5 65.8301 95.5 65.3301C95.5 64.8301 101.5 65.3301 101.5 65.3301C101.5 65.3301 106.5 65.8302 107.5 66.3301C108.5 66.8301 111.5 70.8302 112 71.8301C112.5 72.8301 115.5 76.8301 115.5 77.3301C115.5 77.8301 109.5 77.8301 109.5 77.8301C109.5 77.8301 105 77.8301 103.5 77.3301C102 76.8302 99.501 74.331 98.5006 73.3307Z" fill="#30973B"/>
<path d="M130.5 29.3301C130 28.8301 122 32.3301 120.5 33.3301C119 34.3301 118 35.8301 117.5 37.3301C117 38.8301 117 41.8301 117.5 42.3301C118 42.8301 121 42.8301 122.5 42.3301C124 41.8301 126 41.3301 127 40.3301L127 40.33C128 39.33 129 38.3301 129.5 37.3301C130 36.3301 130.5 34.8301 130.5 33.3301C130.5 31.8301 131 29.8301 130.5 29.3301Z" fill="#CA2232"/>
<path d="M106.5 57.3301C108.5 57.8301 109 57.8301 111.5 57.3301C114 56.8301 115 55.8301 116.5 54.3301C118 52.8301 119.5 49.8301 119.5 49.3301C119.5 48.8301 118.5 48.8301 116.5 48.3301C114.5 47.8301 113.5 47.8301 112 47.8301C110.5 47.8301 109.5 47.8301 108.5 48.3301C107.5 48.8301 106.5 49.3301 104.5 51.3301C102.5 53.3301 101.5 54.8301 101.5 55.3301C101.5 55.8301 104.5 56.8301 106.5 57.3301Z" fill="#2554A2"/>
<path d="M106.5 38.3301C106.5 38.3301 102 40.3301 99.4999 42.8301L99.4991 42.831C96.9998 45.3302 96.4998 45.8303 95.4999 47.3301C94.5 48.8301 94.6004 51.8147 94.9999 53.8301C94.9999 53.8301 96.9999 53.8301 98.4999 53.3301C99.9999 52.8301 99.9999 52.8301 101 52.3301C102 51.8301 102.5 51.3301 102.5 51.3301L104.5 49.3301C104.5 49.3301 105.5 48.3301 106 47.3301C106.5 46.3301 106.5 45.3301 106.5 44.3301V38.3301Z" fill="#CA2232"/>
<path d="M111.5 9.33008C111.5 9.33008 101 11.8301 99.5 13.3301C98 14.8301 97 18.3301 97 18.3301C97 18.3301 95.5 23.8301 95.5 24.3301C95.5 24.8301 99 24.3301 100.5 24.3301C102 24.3301 103.5 23.8301 103.5 23.8301C103.5 23.8301 106 23.3301 106.5 22.8301C107 22.3301 108.5 20.8301 109 19.8301C109.5 18.8301 110 17.3301 110 17.3301C110 17.3301 110.5 16.3301 111 13.8301C111.5 11.3301 111.5 9.33008 111.5 9.33008Z" fill="#30973B"/>
<path d="M95.5 44.3301C98 42.8302 98.5 41.3301 99.5 39.3301C100.5 37.3301 100.5 33.3301 100.5 33.3301C100.5 33.3301 100.5 28.3301 100 27.8301C99.5 27.3301 93.5 31.3301 93.5 31.3301C93.5 31.3301 89.5 33.8302 88.5 35.8301C87.5 37.8301 87.5 38.3301 87.5 41.3301C87.5 44.3301 87.5 45.8301 88.5 46.3301C89.5 46.8302 93 45.8301 95.5 44.3301Z" fill="#30973B"/>
<path d="M61.5 40.3301V36.3301V33.3301L60.5 31.3301L58 28.8301L55.5 27.3301L53 25.8301L50.5 24.3301V29.3301V32.3301L51 34.3301L51.5 35.3301L53.5 37.3301L54.5 38.3301L55.5 38.8301L56.5 39.3301L58.5 39.8301L61.5 40.3301Z" fill="#2554A2"/>
<path d="M36.5 58.3301C36.5 58.3301 39 59.3301 39.5 59.3301C40 59.3302 40.5 56.3301 40.5 56.3301V53.3301L40 50.3301L39.5 48.8301L38.5 47.3301L36 44.8301L33.5 42.8301L30.5 41.3301C29.5 40.8301 27 39.8301 26.5 40.3301C26 40.8301 27.5 47.3301 27.5 47.3301L28.5 51.3301L29.5 53.3301L31.5 55.3301L32.5 56.3301L34.5 57.3301L36.5 58.3301Z" fill="#30973B"/>
<path d="M48.5 43.3302L47.5 42.3302L45.5 40.3302C45 39.8302 43 38.8302 43 38.8302C43 38.8302 42 38.3302 41.5 38.3302H39.5C39.5 38.3302 35 38.3301 35 38.8301C35 39.3301 38 43.3302 38 43.3302L40.5 47.3302L42 48.8302C42.5 49.3302 44 49.8302 44 49.8302L45.5 50.3302H47.5H50.5V47.8302L50 45.3302L48.5 43.3302Z" fill="#CA2232"/>
<path d="M65.5 58.3301C66 57.8301 66 53.8301 66 53.8301C66 53.8301 65.5 51.3301 65 50.8301L63.5 49.3301L62 47.8301L60 45.8301L58.5 44.8301L57.5 44.3301L56.5 43.8301C56.5 43.8301 56 43.3301 55.5 43.3301C55 43.3301 55 46.3301 55 46.3301L55.5 49.8301L56 51.3301L56.5 52.3301L57.5 53.8301C57.5 53.8301 58 54.8301 59 55.8301C60 56.8301 61 57.3301 61 57.3301L63 58.3301C63 58.3301 65 58.8301 65.5 58.3301Z" fill="#EE6F2C"/>
<path d="M32 31.8301C32.5 31.8301 32.5 27.3301 32.5 27.3301L31.5 24.3301C31.5 24.3301 31 22.8301 30.5 22.3301L25.5 17.3301C25 16.8301 20 12.8301 19.5 12.8301C19 12.8301 19.5 20.8301 19.5 20.8301C19.5 20.8301 20 23.3301 20.5 24.3301C21 25.3301 21.5 26.3301 22 26.8301C22.5 27.3301 25.5 29.3301 25.5 29.3301L27.5 30.3301L29 30.8301C29 30.8301 31.5 31.8301 32 31.8301Z" fill="#CA2232"/>
<path d="M47.5 31.3301C47.5 31.3301 48 26.8301 47.5 25.3301C47 23.8302 45.5 22.3301 45.5 22.3301L42.5 19.3301L39.5 17.3301C39.5 17.3301 35.5 14.3301 35.5 14.8301V22.8301V25.8301C35.5 25.8301 35.5 26.8301 36 27.8301C36.5 28.8301 37 29.8301 37.5 30.3301L40.5 33.3301C41 33.8301 43 34.8301 43 34.8301C43 34.8301 45.5 35.8301 46 35.8301C46.5 35.8302 47 33.8301 47 33.8301L47.5 31.3301Z" fill="#30973B"/>
<path d="M48.5 75.3302C48.5 75.3302 52 74.8301 52.5 75.3301C53 75.8301 52 78.3302 51 80.8302C50 83.3302 49.5 84.3302 49.5 84.3302C49.5 84.3302 48.5 85.8303 47.5 86.3302L45.5 87.3302L43.5 88.3302C41.5 89.3302 41 89.3302 41 89.3302C41 89.3302 38.5 89.8302 38.5 89.3302V86.3302C38.5 84.8303 39 83.3302 39 83.3302C39 83.3302 40 80.3301 41 79.3302C42 78.3302 43.5 77.3302 43.5 77.3302L45.5 76.3302C47.5 75.3303 48.5 75.3302 48.5 75.3302Z" fill="#2554A2"/>
<path d="M13.5 25.3301C12.5 24.8301 9 23.8301 9 23.8301L7 23.3301C7 23.3301 4.5 22.8301 4.5 23.3301C4.5 23.8301 5.5 27.3301 5.5 27.3301L6.5 30.3301L8 33.8301C8 33.8301 9 35.8301 9.5 36.3301C10 36.8301 11 37.3301 12 37.8301L14 38.8301L17 39.8301C17 39.8301 20 40.8301 20.5 40.3301C21 39.8301 21 34.8301 21 34.8301L20.5 32.8301C20.5 32.8301 20 31.3301 19.5 30.3301C19 29.3301 16.5 27.3301 16.5 27.3301C16.5 27.3301 14.5 25.8301 13.5 25.3301Z" fill="#30973B"/>
<path d="M76.5 108.33C76.5 108.83 64.5 108.83 64.5 108.33C64.5 107.83 66.5 105.83 66.5 105.33V82.3301C66.5 81.8301 65.5 80.3301 65 79.8301L63 77.8301C61.5 76.3301 57.5 75.3301 57.5 75.3301L49.5 73.3301C49.5 73.3301 40.5 71.8301 38.5 70.3301C36.4999 68.8301 35.5 67.8301 35.5 67.8301C35.5 67.8301 33 65.33 33 64.8301C33 64.3301 34.5 65.3301 34.5 65.3301L36.5 66.8301L39 68.3301C39 68.3301 40 68.8301 40.5 68.3301C41 67.8301 40 66.8301 39.5 65.3301C38.9999 63.8301 38.9999 60.3301 39.5 60.3301C40 60.3301 40 62.8301 41 64.8301C42 66.8301 42.9999 68.3301 44.5 69.3301C46 70.3301 48 70.8301 48 70.8301L52 71.8301C54 72.3301 62 72.8301 62 72.8301C62 72.8301 63.4999 72.8301 64.5 73.3301C65.5 73.8301 66 74.8301 66.5 74.3301C66.9999 73.8301 67 71.8301 66.5 70.3301C65.9999 68.8301 65 66.8301 65 66.8301C65 66.8301 62.5 64.8301 61.5 64.3301C60.4999 63.8301 59.5 63.8301 58 62.8301C56.4999 61.8301 57 62.3301 55.5 61.3301C53.9999 60.3301 52.5 58.8301 51.5 57.3301C50.4999 55.8301 50.5 54.8301 50.5 54.8301C50.5 54.8301 49.9999 52.8301 50.5 52.3301C51 51.8301 52.4999 56.8301 55.5 58.3301L55.5006 58.3304C58.5001 59.8302 59.5001 60.3301 61.5 60.3301H64.5C65.9999 60.3301 67.5 59.3301 67.5 59.3301C67.5 59.3301 69 58.3301 70.5 56.3301C71.9999 54.3301 71.5 50.3301 72 50.8301C72.5 51.33 72.5 53.8301 72.5 53.8301V55.3301L72.5 56.8301V59.3301L72.5 61.3301C72.5 61.8301 73.5 61.3301 73.5 61.3301L76 59.8301L78 57.8301L80.5 55.3301C80.5 55.3301 81 54.8301 81.5 52.3301C82 49.8301 82 45.8301 82.5 46.3301C83 46.8301 83 52.3301 83.5 52.8301C84 53.3301 84.5 53.3301 85.5 52.3301C86.5 51.3301 87 50.3301 87 50.3301C87 50.3301 88.5 46.8301 89 46.8301C89.5 46.8301 89.5 48.3301 88.5 50.3301C87.5 52.3301 87 53.3301 86.5 53.8301C86 54.3301 85 55.8301 84 56.8301C83 57.8301 82 59.3301 80.5 60.3301C79 61.3301 78 61.8301 77 62.8301C76 63.8301 74 64.8301 73.5 65.8301C73 66.8301 73 72.8301 73.5 73.3301C74 73.8301 78.5 68.3301 80.5 66.3301C82.5 64.3301 87.5 62.3301 89 61.3301C90.5 60.3301 94.5 54.8301 95 55.3301C95.5 55.8301 95 56.3301 94.5 57.3301L93.5 59.3301C93 60.3301 93 60.3301 93 60.8301C93 61.3301 95.5 60.3301 95.5 60.3301C95.5 60.3301 97 59.8301 97.5 59.3301C98 58.8301 99 58.3301 99.5 57.8301C100 57.3301 101.5 56.8301 101.5 57.3301C101.5 57.8301 100.5 58.8301 100 59.3301C99.5 59.8301 97.5 61.3301 97.5 61.3301C97.5 61.3301 96 62.8301 94.5 63.3301L91.5 64.3301L85.5 66.3301C85.5 66.3301 84 67.3301 83 67.8301C82 68.33 80.5 69.3301 80.5 69.3301L78.5 71.3301L76.5 74.3301L75.5 75.8301L75 77.3301C75 77.3301 74.5 78.8301 74.5 79.3301V82.3301V95.3301V102.83V105.33C74.5 105.83 76.5 107.83 76.5 108.33Z" fill="#6E3D2B"/>
<path d="M58 20.3301L59 17.8301C59.2544 16.4568 59.5271 15.6726 59.5 14.3301C59.5 14.3301 60 11.3301 59.5 10.3301C59 9.33007 57.5 7.33007 57.5 7.33007L55 4.83007C55 4.83007 49.5 -0.169931 49.5 0.330069C49.5 0.830069 49 3.83007 49 3.83007L48.5 7.33007V11.3301V14.3301L49 15.8301L50 17.8301L51.5 19.3301L54 21.3301C54 21.3301 56 22.3301 56.5 22.3301C57 22.3301 58 20.3301 58 20.3301Z" fill="#30973B"/>
<path d="M87.5 18.3301C89.5 16.8301 89.5 16.3301 90.5 14.3301C91.5 12.3301 91.5 11.3301 91.5 9.33008V6.83008C91.5 5.83008 91 4.33008 90.5 4.33008C90 4.33008 86 5.33008 84.5 6.33008C83 7.33008 81 9.33008 80.5 10.3301C80 11.3301 79.5 13.8301 79.5 15.3301C79.5 16.8301 79 20.8301 79.5 21.3301C80 21.8301 82.5 21.3301 83.5 20.8301L83.5 20.8301C84.5 20.3301 85.5 19.8301 87.5 18.3301Z" fill="#2554A2"/>
<path d="M85.5 42.3301C87 40.8301 87.5 36.3301 87.5 36.3301C87.5 36.3301 88 33.3301 87.5 30.8301C87 28.3301 87 25.8301 86.5 25.8301C86 25.8301 83.5 27.8301 81.5 29.8301C79.5 31.8301 79 32.8301 78.5 35.3301C78 37.8301 78.5 39.8301 79.5 41.8301C80.5 43.8301 81 45.3301 81.5 45.3301C82 45.3301 84 43.8301 85.5 42.3301Z" fill="#EE6F2C"/>
<path d="M114.501 33.3295C117.5 32.3296 117.5 32.3296 119.5 30.8296C121.5 29.3296 121.5 28.3297 122.5 26.3296C123.5 24.3296 124.5 19.33 124 18.83C123.5 18.33 118 21.3301 118 21.3301C118 21.3301 115 22.8296 114 23.3296C113 23.8296 111 25.3296 110.5 27.3296C110 29.3296 109.5 34.3296 109.5 34.3296C109.5 34.3296 111.5 34.3296 114.5 33.3296L114.501 33.3295Z" fill="#EE6F2C"/>
<path d="M126.5 53.8301C127.5 54.3301 128.5 54.3303 131.5 54.3302C134.5 54.3301 136 53.3301 138.5 51.3302C141 49.3303 141.5 46.8301 141.5 46.3302C141.5 45.8303 139.5 44.8301 138.5 44.3302C137.5 43.8302 135 43.8302 133.5 44.3302C132 44.8302 127.5 47.3302 127.5 47.3302C127.5 47.3302 121.5 50.8303 121.5 51.3302C121.5 51.8301 125.5 53.3301 126.5 53.8301Z" fill="#EE6F2C"/>
<path d="M114 65.3301C112.5 64.3301 111 61.8301 111 61.3301C111 60.8301 114 59.3301 114 59.3301C114 59.3301 116 58.3301 117.5 58.3301C119 58.3301 122 59.3301 124.5 60.3301C127 61.3301 130.5 62.8301 130.5 63.3301C130.5 63.8301 126 66.3301 126 66.3301C126 66.3301 123.5 67.3301 122.5 67.3301C121.5 67.3301 119.5 67.3301 118 66.8301C116.5 66.3301 115.5 66.3301 114 65.3301Z" fill="#CA2232"/>
<path d="M23.5 61.3301C22 60.3302 21 58.8301 20.5 57.3301C20 55.8302 19.5 53.3301 19.5 53.3301C19.5 53.3301 19 48.8301 19.5 48.3301C20 47.8301 26.5 51.8301 26.5 51.8301C26.5 51.8301 29.5 53.8302 30.5 55.3301C31.5 56.8301 32 57.3301 32.5 59.3301C33 61.3301 33.5 64.8302 33 64.8301C32.5 64.8301 27.5 63.3301 27.5 63.3301C27.5 63.3301 25 62.3301 23.5 61.3301Z" fill="#EE6F2C"/>
<path d="M22.5 86.8301C23 87.3301 28 84.3301 28 84.3301C28 84.3301 31.5 82.3301 32.5 81.3301C33.5 80.3301 34.5 79.3301 35 77.3301C35.5 75.3301 35.5 71.8301 35.5 71.8301C35.5 71.8301 31 72.3301 29.5 72.8301C28 73.3301 26.5 74.3301 25.5 75.3301C24.5 76.3301 23.5 78.3301 23 80.3301C22.5 82.3301 22 86.3301 22.5 86.8301Z" fill="#CA2232"/>
<path d="M73 12.7949C73 12.7949 64 19.2949 63 20.7949C62 22.2949 62 24.2949 62 26.2949C62 28.2949 63 32.7949 63 32.7949C63 32.7949 66 32.2949 69 30.7949C72 29.2949 73 27.7949 73.5 26.2949C74 24.7949 74 21.7949 74 19.2949C74 16.7949 73 12.7949 73 12.7949Z" fill="#30973B"/>
<path d="M74.5 45.7949C75 44.2949 75.5 43.7949 76 41.7949C76.5 39.7949 76 37.2949 75.5 35.7949C75 34.2949 73 31.7949 73 31.7949C73 31.7949 70 33.2949 69 35.7949C68 38.2949 68 39.2949 68 40.7949C68 42.2949 68 43.7949 69 45.7949C70 47.7949 72 50.7949 72 50.7949C72 50.7949 74 47.2949 74.5 45.7949Z" fill="#CA2232"/>
</svg>
